<svg width="46" height="42" viewBox="0 0 46 42" fill="none" xmlns="http://www.w3.org/2000/svg">
<path d="M41.4802 4.40738C40.3653 3.29254 39.0417 2.40832 37.585 1.80525C36.1283 1.20218 34.567 0.892078 32.9904 0.892671C31.4138 0.893263 29.8527 1.20454 28.3965 1.8087C26.9402 2.41286 25.6173 3.29808 24.5033 4.41375L23.0491 5.88562L21.6071 4.41694L21.5977 4.40756C20.4834 3.29325 19.1605 2.40933 17.7046 1.80627C16.2487 1.2032 14.6882 0.892813 13.1124 0.892813C11.5365 0.892813 9.97606 1.2032 8.52015 1.80627C7.06423 2.40933 5.74136 3.29325 4.62705 4.40756L3.97924 5.05538C1.72881 7.30581 0.464539 10.3581 0.464539 13.5406C0.464539 16.7232 1.72881 19.7755 3.97924 22.0259L21.0767 39.1232L23.0075 41.1461L23.0535 41.1L23.1035 41.15L24.9125 39.2413L42.128 22.0256C44.375 19.7734 45.637 16.7218 45.637 13.5404C45.637 10.3589 44.375 7.30732 42.128 5.05509L41.4802 4.40738ZM40.0062 19.9043L23.0535 36.8574L6.10043 19.9043C4.41262 18.2165 3.46441 15.9273 3.46441 13.5404C3.46441 11.1535 4.41262 8.8643 6.10043 7.17647L6.74834 6.52866C8.43533 4.84167 10.7231 3.89354 13.1089 3.89264C15.4947 3.89174 17.7832 4.83816 19.4714 6.52387L23.0426 10.1602L26.6308 6.52866C27.4666 5.69292 28.4587 5.02998 29.5507 4.57768C30.6426 4.12539 31.8129 3.89259 32.9948 3.89259C34.1767 3.89259 35.3471 4.12539 36.439 4.57768C37.5309 5.02998 38.5231 5.69292 39.3588 6.52866L40.0066 7.17637C41.6919 8.86559 42.6383 11.1543 42.6382 13.5404C42.6382 15.9266 41.6916 18.2152 40.0062 19.9043Z" fill="white"/>
</svg>
